<svg width="25" height="24" viewBox="0 0 25 24" fill="none" xmlns="http://www.w3.org/2000/svg">
<path fill-rule="evenodd" clip-rule="evenodd" d="M12.0543 2.22087C12.4511 1.90164 13.0244 1.93158 13.3858 2.29042C14.3166 3.21466 15.27 3.86276 16.2355 4.49971C16.2973 4.54051 16.3595 4.58139 16.4218 4.62242C17.3115 5.20796 18.2467 5.82345 19.0593 6.63603C20.8164 8.3932 21.6953 10.6983 21.6953 13C21.6953 15.3018 20.8164 17.6068 19.0593 19.364C15.5446 22.8787 9.84607 22.8787 6.33135 19.364C4.57419 17.6068 3.69532 15.3018 3.69531 13C3.69531 10.6982 4.57418 8.3932 6.33135 6.63603C6.56942 6.39796 6.91131 6.29567 7.24101 6.36387C7.56819 6.43154 7.83979 6.65809 7.96519 6.96741L7.96562 6.96843L7.96609 6.96966L7.96697 6.97182M7.96519 6.96741L7.96562 6.96843C7.96726 6.97225 7.97138 6.98173 7.97813 6.99632C7.99165 7.02553 8.0156 7.07498 8.05113 7.14042C8.1224 7.27166 8.23901 7.46487 8.40992 7.68735C8.5247 7.83675 8.66327 7.99852 8.8285 8.16337C8.72974 8.83175 8.69536 9.45714 8.69536 9.99996H9.69536L10.1426 9.10553C9.58576 8.82713 9.15507 8.48922 8.8285 8.16337C9.11538 6.2218 9.94553 3.91749 12.0543 2.22087M12.6773 4.36037C11.0747 6.05118 10.6954 8.32092 10.6954 9.99996C10.6954 10.3465 10.5159 10.6684 10.2211 10.8506C9.92627 11.0328 9.55813 11.0494 9.24814 10.8944C8.16419 10.3524 7.41601 9.64194 6.92527 9.03443C6.10521 10.2244 5.69531 11.6112 5.69531 13C5.69532 14.793 6.37854 16.5827 7.74556 17.9497C10.4792 20.6834 14.9114 20.6834 17.6451 17.9497C19.0121 16.5827 19.6953 14.793 19.6953 13C19.6953 11.207 19.0121 9.41728 17.6451 8.05025C16.9817 7.38693 16.2074 6.87653 15.274 6.26137C15.2278 6.2309 15.1812 6.20018 15.1342 6.16917C14.3692 5.6645 13.5276 5.09984 12.6773 4.36037ZM7.96776 6.97383C7.96776 6.97383 7.96777 6.97383 7.96776 6.97383V6.97383ZM11.7626 10.6796C11.9005 10.2717 12.2841 9.99793 12.7147 10C13.7304 10.0049 14.7478 10.3956 15.5237 11.1715C16.3046 11.9524 16.6953 12.9778 16.6953 14C16.6953 15.0221 16.3046 16.0475 15.5237 16.8284C13.9616 18.3905 11.429 18.3905 9.86689 16.8284C9.08604 16.0475 8.69532 15.0221 8.69531 14C8.69531 13.4477 9.14301 13 9.69529 13L10.9778 13L11.7626 10.6796ZM13.386 12.1222L12.6425 14.3203C12.5052 14.7265 12.1241 14.9999 11.6953 14.9999L10.9625 15C11.0481 15.148 11.1543 15.2874 11.2811 15.4142C12.0621 16.1952 13.3285 16.1952 14.1095 15.4142C14.5002 15.0235 14.6953 14.5134 14.6953 14C14.6953 13.4866 14.5003 12.9765 14.1095 12.5857C13.8973 12.3736 13.65 12.2191 13.386 12.1222Z" fill="#273FFF"/>
</svg>
