<svg width="140" height="150" viewBox="0 0 140 150" fill="none" xmlns="http://www.w3.org/2000/svg">
<path d="M60.7142 0H0.000150234L0 32.5714H34.3337H59.8571C65.7142 32.5714 71.2142 33.7143 76.3571 36C81.4999 38.1429 85.9285 41.1429 89.6428 45C93.4999 48.8572 96.4999 53.4286 98.6428 58.7143C100.786 63.8572 101.857 69.4286 101.857 75.4286C101.857 81.2857 100.786 86.7857 98.6428 91.9286C96.4999 97.0714 93.4999 101.571 89.6428 105.429C85.9285 109.143 81.4999 112.071 76.3571 114.214C71.2142 116.357 65.7142 117.429 59.8571 117.429H34.3337H0.000150234V149.857L60.7142 150C71.7142 150 82.0714 148.071 91.7856 144.214C101.5 140.357 109.857 135.071 116.857 128.357C124 121.643 129.643 113.714 133.786 104.571C137.928 95.4286 140 85.7143 140 75.4286C140 64.8572 137.928 55 133.786 45.8572C129.643 36.5714 124 28.5714 116.857 21.8571C109.857 15.1429 101.5 9.85714 91.7856 6C82.0714 2 71.7142 0 60.7142 0Z" fill="#202326"/>
<rect y="57.5" width="35" height="35" fill="#FFDA00"/>
</svg>
