<svg width="29" height="43" viewBox="0 0 29 43" fill="none" xmlns="http://www.w3.org/2000/svg">
<path d="M1.08008 34.6922L1.98008 34.6922L1.08008 34.6922ZM1.08008 21.5484H1.98008H1.08008ZM1.08008 8.12029L1.98008 8.12029L1.08008 8.12029ZM13.6082 34.6922C13.6082 37.5174 11.4664 40.5063 7.79412 40.5063V42.3062C12.6354 42.3062 15.4082 38.3271 15.4082 34.6922H13.6082ZM7.79412 40.5063C4.6812 40.5063 1.98008 37.7983 1.98008 34.6922L0.180078 34.6922C0.180078 38.791 3.68567 42.3062 7.79412 42.3062V40.5063ZM1.98008 34.6922C1.98008 31.7992 4.26333 28.8782 7.79412 28.8782V27.0782C3.13712 27.0782 0.180078 30.9426 0.180078 34.6922L1.98008 34.6922ZM13.6082 27.9782V34.6922H15.4082V27.9782H13.6082ZM7.79412 28.8782H14.5082V27.0782H7.79412V28.8782ZM13.6082 1.40625V14.8343H15.4082V1.40625H13.6082ZM14.5082 13.9343H7.79412V15.7343H14.5082V13.9343ZM7.79412 13.9343C3.78552 13.9343 0.180078 16.94 0.180078 21.5484H1.98008C1.98008 18.0229 4.68849 15.7343 7.79412 15.7343V13.9343ZM0.180078 21.5484C0.180078 23.6661 0.930344 25.516 2.29748 26.8353C3.66242 28.1526 5.57634 28.8782 7.79412 28.8782V27.0782C5.97287 27.0782 4.52977 26.4881 3.54745 25.5401C2.56732 24.5942 1.98008 23.2292 1.98008 21.5484L0.180078 21.5484ZM7.79412 13.9343C4.76293 13.9343 1.98008 11.6276 1.98008 8.12029H0.180078C0.180078 12.7216 3.87172 15.7343 7.79412 15.7343V13.9343ZM1.98008 8.12029C1.98008 5.20493 4.52913 2.30625 7.79412 2.30625V0.50625C3.46296 0.50625 0.180078 4.28444 0.180078 8.12029L1.98008 8.12029ZM14.5082 0.50625H7.79412V2.30625H14.5082V0.50625ZM27.1 21.5484C27.1 24.2812 24.7945 27.0782 21.5702 27.0782V28.8782C25.8953 28.8782 28.9 25.1652 28.9 21.5484H27.1ZM13.6082 14.8343V21.4062H15.4082V14.8343H13.6082ZM13.6082 21.4062V27.9782H15.4082V21.4062H13.6082ZM21.5702 27.0782C17.8381 27.0782 15.4012 24.4688 15.4082 21.4083L13.6082 21.4042C13.5988 25.5312 16.9147 28.8782 21.5702 28.8782V27.0782ZM28.9 21.5484C28.9 18.2336 26.1571 13.9343 21.286 13.9343V15.7343C24.942 15.7343 27.1 18.9912 27.1 21.5484H28.9ZM21.286 15.7343C26.0429 15.7343 28.9 12.0019 28.9 8.12029H27.1C27.1 11.1417 24.92 13.9343 21.286 13.9343V15.7343ZM28.9 8.12029C28.9 6.10053 27.907 4.20278 26.5105 2.82765C25.1158 1.4544 23.2213 0.50625 21.286 0.50625V2.30625C22.6467 2.30625 24.1092 2.98936 25.2476 4.11024C26.384 5.22925 27.1 6.68851 27.1 8.12029H28.9ZM21.286 0.50625H14.5082V2.30625H21.286V0.50625ZM21.286 13.9343H14.5082V15.7343H21.286V13.9343ZM15.4082 21.4062C15.4082 20.4441 15.7769 19.0002 16.7038 17.8145C17.6022 16.6655 19.0402 15.7343 21.286 15.7343V13.9343C18.459 13.9343 16.5081 15.1424 15.2857 16.7059C14.0919 18.2329 13.6082 20.0749 13.6082 21.4062H15.4082Z" fill="#393F44"/>
</svg>
